# xmcd
#
# Track frame offsets:
#	150
#	17724
#	34086
#	51823
#	64947
#	81725
#	102754
#	117256
#	136086
#	150893
#	164940
#	184427
#
# Disc length: 2953 seconds
#
# Revision: 0
# Processed by: cddbd v1.5.2PL0 Copyright (c) Steve Scherf et al.
# Submitted via: EasyCDDAExtractor 4.6.0.1
#
DISCID=a30b870c
DTITLE=Western Flyer - Back In America
DYEAR=1996
DGENRE=Country
TTITLE0=Back In America
TTITLE1=Lost In You
TTITLE2=Wish You Were Here
TTITLE3=Surrender
TTITLE4=I Know Where You're Comin' From
TTITLE5=What Will You Do With M-E
TTITLE6=New Tin Roof
TTITLE7=She Wants To Be Wanted Again
TTITLE8=Less Than A Minute
TTITLE9=Black And Blue
TTITLE10=Rhythm Of The Highway
TTITLE11=Sixteen Tons
EXTD=
EXTT0=
EXTT1=
EXTT2=
EXTT3=
EXTT4=
EXTT5=
EXTT6=
EXTT7=
EXTT8=
EXTT9=
EXTT10=
EXTT11=
PLAYORDER=
